STARTFONT 2.1
COMMENT The X11 name for this font was "gallant.r.19"
FONT gallant.r.19
SIZE 11 75 75
FONTBOUNDINGBOX 12 20 0 0
STARTPROPERTIES 2
FONT_DESCENT 0
FONT_ASCENT 20
ENDPROPERTIES
CHARS 256
STARTCHAR C000
ENCODING 0
SWIDTH 1 0
DWIDTH 12 0
BBX 12 20 0 0
BITMAP
0000
0000
0000
0000
0000
0000
0000
0000
0000
0000
0000
0000
0000
0000
0000
0000
0000
0000
0000
0000
ENDCHAR
STARTCHAR C001
ENCODING 1
SWIDTH 1 0
DWIDTH 12 0
BBX 12 20 0 0
BITMAP
0000
0000
0000
0000
0000
0000
0000
0000
0000
0000
0000
0000
0000
0000
0000
0000
0000
0000
0000
0000
ENDCHAR
STARTCHAR C002
ENCODING 2
SWIDTH 1 0
DWIDTH 12 0
BBX 12 20 0 0
BITMAP
0000
0000
0000
0000
0000
0000
0000
0000
0000
0000
0000
0000
0000
0000
0000
0000
0000
0000
0000
0000
ENDCHAR
STARTCHAR C003
ENCODING 3
SWIDTH 1 0
DWIDTH 12 0
BBX 12 20 0 0
BITMAP
0000
0000
0000
0000
0000
0000
0000
0000
0000
0000
0000
0000
0000
0000
0000
0000
0000
0000
0000
0000
ENDCHAR
STARTCHAR C004
ENCODING 4
SWIDTH 1 0
DWIDTH 12 0
BBX 12 20 0 0
BITMAP
0000
0000
0000
0000
0000
0000
0000
0000
0000
0000
0000
0000
0000
0000
0000
0000
0000
0000
0000
0000
ENDCHAR
STARTCHAR C005
ENCODING 5
SWIDTH 1 0
DWIDTH 12 0
BBX 12 20 0 0
BITMAP
0000
0000
0000
0000
0000
0000
0000
0000
0000
0000
0000
0000
0000
0000
0000
0000
0000
0000
0000
0000
ENDCHAR
STARTCHAR C006
ENCODING 6
SWIDTH 1 0
DWIDTH 12 0
BBX 12 20 0 0
BITMAP
0000
0000
0000
0000
0000
0000
0000
0000
0000
0000
0000
0000
0000
0000
0000
0000
0000
0000
0000
0000
ENDCHAR
STARTCHAR C007
ENCODING 7
SWIDTH 1 0
DWIDTH 12 0
BBX 12 20 0 0
BITMAP
0000
0000
0000
0000
0000
0000
0000
0000
0000
0000
0000
0000
0000
0000
0000
0000
0000
0000
0000
0000
ENDCHAR
STARTCHAR C010
ENCODING 8
SWIDTH 1 0
DWIDTH 12 0
BBX 12 20 0 0
BITMAP
0000
0000
0000
0000
0000
0000
0000
0000
0000
0000
0000
0000
0000
0000
0000
0000
0000
0000
0000
0000
ENDCHAR
STARTCHAR C011
ENCODING 9
SWIDTH 1 0
DWIDTH 12 0
BBX 12 20 0 0
BITMAP
0000
0000
0000
0000
0000
0000
0000
0000
0000
0000
0000
0000
0000
0000
0000
0000
0000
0000
0000
0000
ENDCHAR
STARTCHAR C012
ENCODING 10
SWIDTH 1 0
DWIDTH 12 0
BBX 12 20 0 0
BITMAP
0000
0000
0000
0000
0000
0000
0000
0000
0000
0000
0000
0000
0000
0000
0000
0000
0000
0000
0000
0000
ENDCHAR
STARTCHAR C013
ENCODING 11
SWIDTH 1 0
DWIDTH 12 0
BBX 12 20 0 0
BITMAP
0000
0000
0000
0000
0000
0000
0000
0000
0000
0000
0000
0000
0000
0000
0000
0000
0000
0000
0000
0000
ENDCHAR
STARTCHAR C014
ENCODING 12
SWIDTH 1 0
DWIDTH 12 0
BBX 12 20 0 0
BITMAP
0000
0000
0000
0000
0000
0000
0000
0000
0000
0000
0000
0000
0000
0000
0000
0000
0000
0000
0000
0000
ENDCHAR
STARTCHAR C015
ENCODING 13
SWIDTH 1 0
DWIDTH 12 0
BBX 12 20 0 0
BITMAP
0000
0000
0000
0000
0000
0000
0000
0000
0000
0000
0000
0000
0000
0000
0000
0000
0000
0000
0000
0000
ENDCHAR
STARTCHAR C016
ENCODING 14
SWIDTH 1 0
DWIDTH 12 0
BBX 12 20 0 0
BITMAP
0000
0000
0000
0000
0000
0000
0000
0000
0000
0000
0000
0000
0000
0000
0000
0000
0000
0000
0000
0000
ENDCHAR
STARTCHAR C017
ENCODING 15
SWIDTH 1 0
DWIDTH 12 0
BBX 12 20 0 0
BITMAP
0000
0000
0000
0000
0000
0000
0000
0000
0000
0000
0000
0000
0000
0000
0000
0000
0000
0000
0000
0000
ENDCHAR
STARTCHAR C020
ENCODING 16
SWIDTH 1 0
DWIDTH 12 0
BBX 12 20 0 0
BITMAP
0000
0000
0000
0000
0000
0000
0000
0000
0000
0000
0000
0000
0000
0000
0000
0000
0000
0000
0000
0000
ENDCHAR
STARTCHAR C021
ENCODING 17
SWIDTH 1 0
DWIDTH 12 0
BBX 12 20 0 0
BITMAP
0000
0000
0000
0000
0000
0000
0000
0000
0000
0000
0000
0000
0000
0000
0000
0000
0000
0000
0000
0000
ENDCHAR
STARTCHAR C022
ENCODING 18
SWIDTH 1 0
DWIDTH 12 0
BBX 12 20 0 0
BITMAP
0000
0000
0000
0000
0000
0000
0000
0000
0000
0000
0000
0000
0000
0000
0000
0000
0000
0000
0000
0000
ENDCHAR
STARTCHAR C023
ENCODING 19
SWIDTH 1 0
DWIDTH 12 0
BBX 12 20 0 0
BITMAP
0000
0000
0000
0000
0000
0000
0000
0000
0000
0000
0000
0000
0000
0000
0000
0000
0000
0000
0000
0000
ENDCHAR
STARTCHAR C024
ENCODING 20
SWIDTH 1 0
DWIDTH 12 0
BBX 12 20 0 0
BITMAP
0000
0000
0000
0000
0000
0000
0000
0000
0000
0000
0000
0000
0000
0000
0000
0000
0000
0000
0000
0000
ENDCHAR
STARTCHAR C025
ENCODING 21
SWIDTH 1 0
DWIDTH 12 0
BBX 12 20 0 0
BITMAP
0000
0000
0000
0000
0000
0000
0000
0000
0000
0000
0000
0000
0000
0000
0000
0000
0000
0000
0000
0000
ENDCHAR
STARTCHAR C026
ENCODING 22
SWIDTH 1 0
DWIDTH 12 0
BBX 12 20 0 0
BITMAP
0000
0000
0000
0000
0000
0000
0000
0000
0000
0000
0000
0000
0000
0000
0000
0000
0000
0000
0000
0000
ENDCHAR
STARTCHAR C027
ENCODING 23
SWIDTH 1 0
DWIDTH 12 0
BBX 12 20 0 0
BITMAP
0000
0000
0000
0000
0000
0000
0000
0000
0000
0000
0000
0000
0000
0000
0000
0000
0000
0000
0000
0000
ENDCHAR
STARTCHAR C030
ENCODING 24
SWIDTH 1 0
DWIDTH 12 0
BBX 12 20 0 0
BITMAP
0000
0000
0000
0000
0000
0000
0000
0000
0000
0000
0000
0000
0000
0000
0000
0000
0000
0000
0000
0000
ENDCHAR
STARTCHAR C031
ENCODING 25
SWIDTH 1 0
DWIDTH 12 0
BBX 12 20 0 0
BITMAP
0000
0000
0000
0000
0000
0000
0000
0000
0000
0000
0000
0000
0000
0000
0000
0000
0000
0000
0000
0000
ENDCHAR
STARTCHAR C032
ENCODING 26
SWIDTH 1 0
DWIDTH 12 0
BBX 12 20 0 0
BITMAP
0000
0000
0000
0000
0000
0000
0000
0000
0000
0000
0000
0000
0000
0000
0000
0000
0000
0000
0000
0000
ENDCHAR
STARTCHAR C033
ENCODING 27
SWIDTH 1 0
DWIDTH 12 0
BBX 12 20 0 0
BITMAP
0000
0000
0000
0000
0000
0000
0000
0000
0000
0000
0000
0000
0000
0000
0000
0000
0000
0000
0000
0000
ENDCHAR
STARTCHAR C034
ENCODING 28
SWIDTH 1 0
DWIDTH 12 0
BBX 12 20 0 0
BITMAP
0000
0000
0000
0000
0000
0000
0000
0000
0000
0000
0000
0000
0000
0000
0000
0000
0000
0000
0000
0000
ENDCHAR
STARTCHAR C035
ENCODING 29
SWIDTH 1 0
DWIDTH 12 0
BBX 12 20 0 0
BITMAP
0000
0000
0000
0000
0000
0000
0000
0000
0000
0000
0000
0000
0000
0000
0000
0000
0000
0000
0000
0000
ENDCHAR
STARTCHAR C036
ENCODING 30
SWIDTH 1 0
DWIDTH 12 0
BBX 12 20 0 0
BITMAP
0000
0000
0000
0000
0000
0000
0000
0000
0000
0000
0000
0000
0000
0000
0000
0000
0000
0000
0000
0000
ENDCHAR
STARTCHAR C037
ENCODING 31
SWIDTH 1 0
DWIDTH 12 0
BBX 12 20 0 0
BITMAP
0000
0000
0000
0000
0000
0000
0000
0000
0000
0000
0000
0000
0000
0000
0000
0000
0000
0000
0000
0000
ENDCHAR
STARTCHAR C040
ENCODING 32
SWIDTH 1 0
DWIDTH 12 0
BBX 12 20 0 0
BITMAP
0000
0000
0000
0000
0000
0000
0000
0000
0000
0000
0000
0000
0000
0000
0000
0000
0000
0000
0000
0000
ENDCHAR
STARTCHAR !
ENCODING 33
SWIDTH 1 0
DWIDTH 12 0
BBX 12 20 0 0
BITMAP
0600
0600
0600
0600
0600
0600
0600
0600
0600
0600
0600
0000
0000
0600
0600
0000
0000
0000
0000
0000
ENDCHAR
STARTCHAR "
ENCODING 34
SWIDTH 1 0
DWIDTH 12 0
BBX 12 20 0 0
BITMAP
1980
1980
1980
1980
1980
1980
0000
0000
0000
0000
0000
0000
0000
0000
0000
0000
0000
0000
0000
0000
ENDCHAR
STARTCHAR #
ENCODING 35
SWIDTH 1 0
DWIDTH 12 0
BBX 12 20 0 0
BITMAP
0330
0330
0330
0660
1ff0
1ff0
0cc0
0cc0
1980
1980
7fc0
7fc0
3300
6600
6600
0000
0000
0000
0000
0000
ENDCHAR
STARTCHAR $
ENCODING 36
SWIDTH 1 0
DWIDTH 12 0
BBX 12 20 0 0
BITMAP
0600
1f80
3fc0
66e0
6660
6600
3e00
1f80
07c0
0660
0660
6660
7fc0
3f80
0600
0000
0000
0000
0000
0000
ENDCHAR
STARTCHAR %
ENCODING 37
SWIDTH 1 0
DWIDTH 12 0
BBX 12 20 0 0
BITMAP
3860
44c0
44c0
4580
3980
0300
0300
0600
0c00
0c00
19c0
1a20
3220
3220
61c0
0000
0000
0000
0000
0000
ENDCHAR
STARTCHAR &
ENCODING 38
SWIDTH 1 0
DWIDTH 12 0
BBX 12 20 0 0
BITMAP
0700
0f80
18c0
18c0
18c0
0f80
1e00
3e00
7700
6360
61e0
61c0
6180
3fe0
1e60
0000
0000
0000
0000
0000
ENDCHAR
STARTCHAR '
ENCODING 39
SWIDTH 1 0
DWIDTH 12 0
BBX 12 20 0 0
BITMAP
0c00
1e00
1e00
0600
0600
0c00
1800
1000
0000
0000
0000
0000
0000
0000
0000
0000
0000
0000
0000
0000
ENDCHAR
STARTCHAR (
ENCODING 40
SWIDTH 1 0
DWIDTH 12 0
BBX 12 20 0 0
BITMAP
00c0
0180
0380
0300
0700
0600
0600
0600
0600
0600
0700
0300
0380
0180
00c0
0000
0000
0000
0000
0000
ENDCHAR
STARTCHAR )
ENCODING 41
SWIDTH 1 0
DWIDTH 12 0
BBX 12 20 0 0
BITMAP
3000
1800
1c00
0c00
0e00
0600
0600
0600
0600
0600
0e00
0c00
1c00
1800
3000
0000
0000
0000
0000
0000
ENDCHAR
STARTCHAR *
ENCODING 42
SWIDTH 1 0
DWIDTH 12 0
BBX 12 20 0 0
BITMAP
0000
0000
0000
0000
0f00
0600
6660
76e0
1980
0000
1980
76e0
6660
0600
0f00
0000
0000
0000
0000
0000
ENDCHAR
STARTCHAR +
ENCODING 43
SWIDTH 1 0
DWIDTH 12 0
BBX 12 20 0 0
BITMAP
0000
0000
0000
0000
0000
0600
0600
0600
0600
7fe0
7fe0
0600
0600
0600
0600
0000
0000
0000
0000
0000
ENDCHAR
STARTCHAR ,
ENCODING 44
SWIDTH 1 0
DWIDTH 12 0
BBX 12 20 0 0
BITMAP
0000
0000
0000
0000
0000
0000
0000
0000
0000
0000
0000
0000
0c00
1e00
1e00
0600
0600
0c00
1800
1000
ENDCHAR
STARTCHAR -
ENCODING 45
SWIDTH 1 0
DWIDTH 12 0
BBX 12 20 0 0
BITMAP
0000
0000
0000
0000
0000
0000
0000
0000
0000
7fe0
7fe0
0000
0000
0000
0000
0000
0000
0000
0000
0000
ENDCHAR
STARTCHAR .
ENCODING 46
SWIDTH 1 0
DWIDTH 12 0
BBX 12 20 0 0
BITMAP
0000
0000
0000
0000
0000
0000
0000
0000
0000
0000
0000
0c00
1e00
1e00
0c00
0000
0000
0000
0000
0000
ENDCHAR
STARTCHAR /
ENCODING 47
SWIDTH 1 0
DWIDTH 12 0
BBX 12 20 0 0
BITMAP
0060
00c0
00c0
0180
0180
0300
0300
0600
0c00
0c00
1800
1800
3000
3000
6000
0000
0000
0000
0000
0000
ENDCHAR
STARTCHAR 0
ENCODING 48
SWIDTH 1 0
DWIDTH 12 0
BBX 12 20 0 0
BITMAP
0700
0f80
1180
10c0
30c0
30c0
30c0
30c0
30c0
30c0
30c0
3080
1880
1f00
0e00
0000
0000
0000
0000
0000
ENDCHAR
STARTCHAR 1
ENCODING 49
SWIDTH 1 0
DWIDTH 12 0
BBX 12 20 0 0
BITMAP
0200
0600
0e00
1e00
3600
0600
0600
0600
0600
0600
0600
0600
0600
0600
3fc0
0000
0000
0000
0000
0000
ENDCHAR
STARTCHAR 2
ENCODING 50
SWIDTH 1 0
DWIDTH 12 0
BBX 12 20 0 0
BITMAP
1f00
3f80
61c0
40c0
00c0
00c0
00c0
0180
0300
0600
0c00
1800
3020
7fe0
7fe0
0000
0000
0000
0000
0000
ENDCHAR
STARTCHAR 3
ENCODING 51
SWIDTH 1 0
DWIDTH 12 0
BBX 12 20 0 0
BITMAP
0f80
1fc0
20e0
4060
0060
00e0
07c0
0fc0
00e0
0060
0060
4060
6040
3f80
1f00
0000
0000
0000
0000
0000
ENDCHAR
STARTCHAR 4
ENCODING 52
SWIDTH 1 0
DWIDTH 12 0
BBX 12 20 0 0
BITMAP
0180
0380
0380
0580
0580
0980
0980
1180
1180
2180
3fe0
7fe0
0180
0180
0180
0000
0000
0000
0000
0000
ENDCHAR
STARTCHAR 5
ENCODING 53
SWIDTH 1 0
DWIDTH 12 0
BBX 12 20 0 0
BITMAP
0fc0
0fc0
1000
1000
2000
3f80
31c0
00e0
0060
0060
0060
4060
6060
30c0
1f80
0000
0000
0000
0000
0000
ENDCHAR
STARTCHAR 6
ENCODING 54
SWIDTH 1 0
DWIDTH 12 0
BBX 12 20 0 0
BITMAP
0700
0c00
1800
3000
3000
6000
6780
6fc0
70e0
6060
6060
6060
7040
3f80
1f00
0000
0000
0000
0000
0000
ENDCHAR
STARTCHAR 7
ENCODING 55
SWIDTH 1 0
DWIDTH 12 0
BBX 12 20 0 0
BITMAP
1fe0
3fe0
6040
0040
00c0
0080
0080
0180
0100
0100
0300
0200
0200
0600
0400
0000
0000
0000
0000
0000
ENDCHAR
STARTCHAR 8
ENCODING 56
SWIDTH 1 0
DWIDTH 12 0
BBX 12 20 0 0
BITMAP
0f00
1180
30c0
30c0
30c0
1880
0d00
0600
0b00
1180
30c0
30c0
30c0
1880
0f00
0000
0000
0000
0000
0000
ENDCHAR
STARTCHAR 9
ENCODING 57
SWIDTH 1 0
DWIDTH 12 0
BBX 12 20 0 0
BITMAP
0f80
11c0
20e0
6060
6060
6060
70e0
3f60
1e60
0060
00c0
00c0
0180
0700
3c00
0000
0000
0000
0000
0000
ENDCHAR
STARTCHAR :
ENCODING 58
SWIDTH 1 0
DWIDTH 12 0
BBX 12 20 0 0
BITMAP
0000
0000
0000
0000
0000
0c00
1e00
1e00
0c00
0000
0000
0c00
1e00
1e00
0c00
0000
0000
0000
0000
0000
ENDCHAR
STARTCHAR ;
ENCODING 59
SWIDTH 1 0
DWIDTH 12 0
BBX 12 20 0 0
BITMAP
0000
0000
0000
0000
0000
0000
0c00
1e00
1e00
0c00
0000
0000
0c00
1e00
1e00
0600
0600
0c00
1800
1000
ENDCHAR
STARTCHAR <
ENCODING 60
SWIDTH 1 0
DWIDTH 12 0
BBX 12 20 0 0
BITMAP
0000
0000
0000
0000
0000
0060
01c0
0700
1e00
7800
7800
1e00
0700
01c0
0060
0000
0000
0000
0000
0000
ENDCHAR
STARTCHAR =
ENCODING 61
SWIDTH 1 0
DWIDTH 12 0
BBX 12 20 0 0
BITMAP
0000
0000
0000
0000
0000
0000
0000
7fc0
7fc0
0000
0000
7fc0
7fc0
0000
0000
0000
0000
0000
0000
0000
ENDCHAR
STARTCHAR >
ENCODING 62
SWIDTH 1 0
DWIDTH 12 0
BBX 12 20 0 0
BITMAP
0000
0000
0000
0000
0000
6000
3800
1e00
0780
01e0
01e0
0780
1e00
3800
6000
0000
0000
0000
0000
0000
ENDCHAR
STARTCHAR ?
ENCODING 63
SWIDTH 1 0
DWIDTH 12 0
BBX 12 20 0 0
BITMAP
0f00
1f80
39c0
20c0
00c0
00c0
0180
0300
0600
0c00
0c00
0000
0000
0c00
0c00
0000
0000
0000
0000
0000
ENDCHAR
STARTCHAR @
ENCODING 64
SWIDTH 1 0
DWIDTH 12 0
BBX 12 20 0 0
BITMAP
0000
0000
0000
0f80
3fc0
3060
6060
6720
6fa0
6ca0
6ca0
67e0
6000
3000
3fe0
0fe0
0000
0000
0000
0000
ENDCHAR
STARTCHAR A
ENCODING 65
SWIDTH 1 0
DWIDTH 12 0
BBX 12 20 0 0
BITMAP
0000
0600
0600
0b00
0b00
0900
1180
1180
1080
3fc0
20c0
2040
4060
4060
e0f0
0000
0000
0000
0000
0000
ENDCHAR
STARTCHAR B
ENCODING 66
SWIDTH 1 0
DWIDTH 12 0
BBX 12 20 0 0
BITMAP
0000
ff00
6080
60c0
60c0
60c0
6180
7f80
60c0
6060
6060
6060
6060
60c0
ff80
0000
0000
0000
0000
0000
ENDCHAR
STARTCHAR C
ENCODING 67
SWIDTH 1 0
DWIDTH 12 0
BBX 12 20 0 0
BITMAP
0000
0fc0
1060
2020
2000
6000
6000
6000
6000
6000
6000
2000
3020
1840
0f80
0000
0000
0000
0000
0000
ENDCHAR
STARTCHAR D
ENCODING 68
SWIDTH 1 0
DWIDTH 12 0
BBX 12 20 0 0
BITMAP
0000
ff00
61c0
60c0
6060
6060
6060
6060
6060
6060
6060
6060
6040
6180
fe00
0000
0000
0000
0000
0000
ENDCHAR
STARTCHAR E
ENCODING 69
SWIDTH 1 0
DWIDTH 12 0
BBX 12 20 0 0
BITMAP
0000
7fc0
3040
3040
3000
3000
3080
3f80
3080
3000
3000
3000
3020
3020
7fe0
0000
0000
0000
0000
0000
ENDCHAR
STARTCHAR F
ENCODING 70
SWIDTH 1 0
DWIDTH 12 0
BBX 12 20 0 0
BITMAP
0000
7fc0
3040
3040
3000
3000
3080
3f80
3080
3000
3000
3000
3000
3000
7800
0000
0000
0000
0000
0000
ENDCHAR
STARTCHAR G
ENCODING 71
SWIDTH 1 0
DWIDTH 12 0
BBX 12 20 0 0
BITMAP
0000
0fc0
1060
2020
2000
6000
6000
6000
6000
61f0
6060
2060
3060
1860
0f80
0000
0000
0000
0000
0000
ENDCHAR
STARTCHAR H
ENCODING 72
SWIDTH 1 0
DWIDTH 12 0
BBX 12 20 0 0
BITMAP
0000
f0f0
6060
6060
6060
6060
6060
7fe0
6060
6060
6060
6060
6060
6060
f0f0
0000
0000
0000
0000
0000
ENDCHAR
STARTCHAR I
ENCODING 73
SWIDTH 1 0
DWIDTH 12 0
BBX 12 20 0 0
BITMAP
0000
1f80
0600
0600
0600
0600
0600
0600
0600
0600
0600
0600
0600
0600
1f80
0000
0000
0000
0000
0000
ENDCHAR
STARTCHAR J
ENCODING 74
SWIDTH 1 0
DWIDTH 12 0
BBX 12 20 0 0
BITMAP
0000
1f80
0600
0600
0600
0600
0600
0600
0600
0600
0600
0600
0600
0600
0600
0600
0600
0400
3800
3000
ENDCHAR
STARTCHAR K
ENCODING 75
SWIDTH 1 0
DWIDTH 12 0
BBX 12 20 0 0
BITMAP
0000
f0e0
6180
6300
6600
6c00
7800
7800
7c00
6e00
6700
6380
61c0
60e0
f070
0000
0000
0000
0000
0000
ENDCHAR
STARTCHAR L
ENCODING 76
SWIDTH 1 0
DWIDTH 12 0
BBX 12 20 0 0
BITMAP
0000
7800
3000
3000
3000
3000
3000
3000
3000
3000
3000
3000
3020
3020
7fe0
0000
0000
0000
0000
0000
ENDCHAR
STARTCHAR M
ENCODING 77
SWIDTH 1 0
DWIDTH 12 0
BBX 12 20 0 0
BITMAP
0000
e070
60e0
70e0
70e0
70e0
5960
5960
5960
4d60
4e60
4e60
4460
4460
e4f0
0000
0000
0000
0000
0000
ENDCHAR
STARTCHAR N
ENCODING 78
SWIDTH 1 0
DWIDTH 12 0
BBX 12 20 0 0
BITMAP
0000
c070
6020
7020
7820
5820
4c20
4620
4720
4320
41a0
40e0
40e0
4060
e030
0000
0000
0000
0000
0000
ENDCHAR
STARTCHAR O
ENCODING 79
SWIDTH 1 0
DWIDTH 12 0
BBX 12 20 0 0
BITMAP
0000
0f00
11c0
20c0
2060
6060
6060
6060
6060
6060
6060
2040
3040
1880
0f00
0000
0000
0000
0000
0000
ENDCHAR
STARTCHAR P
ENCODING 80
SWIDTH 1 0
DWIDTH 12 0
BBX 12 20 0 0
BITMAP
0000
7f80
30c0
3060
3060
3060
30c0
3780
3000
3000
3000
3000
3000
3000
7800
0000
0000
0000
0000
0000
ENDCHAR
STARTCHAR Q
ENCODING 81
SWIDTH 1 0
DWIDTH 12 0
BBX 12 20 0 0
BITMAP
0000
0f00
11c0
20c0
2060
6060
6060
6060
6060
6060
6060
3040
3840
1f80
0e00
1f00
2390
01e0
0000
0000
ENDCHAR
STARTCHAR R
ENCODING 82
SWIDTH 1 0
DWIDTH 12 0
BBX 12 20 0 0
BITMAP
0000
ff00
6180
60c0
60c0
60c0
6080
7f00
7c00
6e00
6700
6380
61c0
60e0
f070
0000
0000
0000
0000
0000
ENDCHAR
STARTCHAR S
ENCODING 83
SWIDTH 1 0
DWIDTH 12 0
BBX 12 20 0 0
BITMAP
0000
1fe0
3060
6020
6020
7000
3c00
1e00
0780
01c0
00e0
4060
4060
60c0
7f80
0000
0000
0000
0000
0000
ENDCHAR
STARTCHAR T
ENCODING 84
SWIDTH 1 0
DWIDTH 12 0
BBX 12 20 0 0
BITMAP
0000
7fe0
4620
0600
0600
0600
0600
0600
0600
0600
0600
0600
0600
0600
1f80
0000
0000
0000
0000
0000
ENDCHAR
STARTCHAR U
ENCODING 85
SWIDTH 1 0
DWIDTH 12 0
BBX 12 20 0 0
BITMAP
0000
f070
6020
6020
6020
6020
6020
6020
6020
6020
6020
6020
7040
3fc0
1f80
0000
0000
0000
0000
0000
ENDCHAR
STARTCHAR V
ENCODING 86
SWIDTH 1 0
DWIDTH 12 0
BBX 12 20 0 0
BITMAP
0000
e0e0
6040
3080
3080
3080
1900
1900
1900
0c00
0e00
0e00
0400
0400
0400
0000
0000
0000
0000
0000
ENDCHAR
STARTCHAR W
ENCODING 87
SWIDTH 1 0
DWIDTH 12 0
BBX 12 20 0 0
BITMAP
0000
fef0
6620
6620
6620
7620
7740
3340
3740
3bc0
3b80
1980
1980
1980
1980
0000
0000
0000
0000
0000
ENDCHAR
STARTCHAR X
ENCODING 88
SWIDTH 1 0
DWIDTH 12 0
BBX 12 20 0 0
BITMAP
0000
f070
6020
3040
3880
1880
0d00
0600
0600
0b00
1180
11c0
20c0
4060
e0f0
0000
0000
0000
0000
0000
ENDCHAR
STARTCHAR Y
ENCODING 89
SWIDTH 1 0
DWIDTH 12 0
BBX 12 20 0 0
BITMAP
0000
f070
6020
3040
1880
1880
0d00
0600
0600
0600
0600
0600
0600
0600
0f00
0000
0000
0000
0000
0000
ENDCHAR
STARTCHAR Z
ENCODING 90
SWIDTH 1 0
DWIDTH 12 0
BBX 12 20 0 0
BITMAP
0000
3fe0
20c0
00c0
0180
0180
0300
0300
0600
0600
0c00
0c00
1800
1820
3fe0
0000
0000
0000
0000
0000
ENDCHAR
STARTCHAR [
ENCODING 91
SWIDTH 1 0
DWIDTH 12 0
BBX 12 20 0 0
BITMAP
07c0
07c0
0600
0600
0600
0600
0600
0600
0600
0600
0600
0600
0600
07c0
07c0
0000
0000
0000
0000
0000
ENDCHAR
STARTCHAR \
ENCODING 92
SWIDTH 1 0
DWIDTH 12 0
BBX 12 20 0 0
BITMAP
6000
6000
3000
3000
1800
1800
0c00
0c00
0600
0300
0300
0180
0180
00c0
00c0
0000
0000
0000
0000
0000
ENDCHAR
STARTCHAR ]
ENCODING 93
SWIDTH 1 0
DWIDTH 12 0
BBX 12 20 0 0
BITMAP
7c00
7c00
0c00
0c00
0c00
0c00
0c00
0c00
0c00
0c00
0c00
0c00
0c00
7c00
7c00
0000
0000
0000
0000
0000
ENDCHAR
STARTCHAR ^
ENCODING 94
SWIDTH 1 0
DWIDTH 12 0
BBX 12 20 0 0
BITMAP
0400
0e00
1b00
3180
60c0
0000
0000
0000
0000
0000
0000
0000
0000
0000
0000
0000
0000
0000
0000
0000
ENDCHAR
STARTCHAR _
ENCODING 95
SWIDTH 1 0
DWIDTH 12 0
BBX 12 20 0 0
BITMAP
0000
0000
0000
0000
0000
0000
0000
0000
0000
0000
0000
0000
0000
0000
0000
0000
fff0
fff0
0000
0000
ENDCHAR
STARTCHAR `
ENCODING 96
SWIDTH 1 0
DWIDTH 12 0
BBX 12 20 0 0
BITMAP
0100
0300
0600
0600
0780
0780
0300
0000
0000
0000
0000
0000
0000
0000
0000
0000
0000
0000
0000
0000
ENDCHAR
STARTCHAR a
ENCODING 97
SWIDTH 1 0
DWIDTH 12 0
BBX 12 20 0 0
BITMAP
0000
0000
0000
0000
0000
0f80
18c0
10c0
03c0
1cc0
30c0
30c0
30c0
39c0
1ee0
0000
0000
0000
0000
0000
ENDCHAR
STARTCHAR b
ENCODING 98
SWIDTH 1 0
DWIDTH 12 0
BBX 12 20 0 0
BITMAP
2000
6000
e000
6000
6000
6780
6fc0
70e0
6060
6060
6060
6060
7060
78c0
4f80
0000
0000
0000
0000
0000
ENDCHAR
STARTCHAR c
ENCODING 99
SWIDTH 1 0
DWIDTH 12 0
BBX 12 20 0 0
BITMAP
0000
0000
0000
0000
0000
1f80
31c0
20c0
6000
6000
6000
6000
7040
30c0
1f80
0000
0000
0000
0000
0000
ENDCHAR
STARTCHAR d
ENCODING 100
SWIDTH 1 0
DWIDTH 12 0
BBX 12 20 0 0
BITMAP
0060
00e0
0060
0060
0060
0f60
31e0
20e0
6060
6060
6060
6060
70e0
3960
1e70
0000
0000
0000
0000
0000
ENDCHAR
STARTCHAR e
ENCODING 101
SWIDTH 1 0
DWIDTH 12 0
BBX 12 20 0 0
BITMAP
0000
0000
0000
0000
0000
0f00
30c0
6060
6060
7fe0
6000
6000
3000
1860
0f80
0000
0000
0000
0000
0000
ENDCHAR
STARTCHAR f
ENCODING 102
SWIDTH 1 0
DWIDTH 12 0
BBX 12 20 0 0
BITMAP
0380
04c0
04c0
0c00
0c00
0c00
0c00
1f80
0c00
0c00
0c00
0c00
0c00
0c00
1e00
0000
0000
0000
0000
0000
ENDCHAR
STARTCHAR g
ENCODING 103
SWIDTH 1 0
DWIDTH 12 0
BBX 12 20 0 0
BITMAP
0000
0000
0000
0000
0000
1f20
31e0
60c0
60c0
60c0
3180
3f00
6000
7fc0
3fe0
2060
4020
4020
7fc0
3f80
ENDCHAR
STARTCHAR h
ENCODING 104
SWIDTH 1 0
DWIDTH 12 0
BBX 12 20 0 0
BITMAP
1000
3000
7000
3000
3000
3780
39c0
30c0
30c0
30c0
30c0
30c0
30c0
30c0
79e0
0000
0000
0000
0000
0000
ENDCHAR
STARTCHAR i
ENCODING 105
SWIDTH 1 0
DWIDTH 12 0
BBX 12 20 0 0
BITMAP
0000
0600
0600
0000
0000
1e00
0600
0600
0600
0600
0600
0600
0600
0600
1f80
0000
0000
0000
0000
0000
ENDCHAR
STARTCHAR j
ENCODING 106
SWIDTH 1 0
DWIDTH 12 0
BBX 12 20 0 0
BITMAP
0000
00c0
00c0
0000
0000
03c0
00c0
00c0
00c0
00c0
00c0
00c0
00c0
00c0
00c0
20c0
30c0
3880
1f00
0e00
ENDCHAR
STARTCHAR k
ENCODING 107
SWIDTH 1 0
DWIDTH 12 0
BBX 12 20 0 0
BITMAP
6000
e000
6000
6000
6000
61c0
6300
6600
7c00
7800
7c00
6e00
6700
6380
f1e0
0000
0000
0000
0000
0000
ENDCHAR
STARTCHAR l
ENCODING 108
SWIDTH 1 0
DWIDTH 12 0
BBX 12 20 0 0
BITMAP
1e00
0600
0600
0600
0600
0600
0600
0600
0600
0600
0600
0600
0600
0600
1f80
0000
0000
0000
0000
0000
ENDCHAR
STARTCHAR m
ENCODING 109
SWIDTH 1 0
DWIDTH 12 0
BBX 12 20 0 0
BITMAP
0000
0000
0000
0000
0000
ddc0
6ee0
6660
6660
6660
6660
6660
6660
6660
ef70
0000
0000
0000
0000
0000
ENDCHAR
STARTCHAR n
ENCODING 110
SWIDTH 1 0
DWIDTH 12 0
BBX 12 20 0 0
BITMAP
0000
0000
0000
0000
0000
2780
79c0
30c0
30c0
30c0
30c0
30c0
30c0
30c0
79e0
0000
0000
0000
0000
0000
ENDCHAR
STARTCHAR o
ENCODING 111
SWIDTH 1 0
DWIDTH 12 0
BBX 12 20 0 0
BITMAP
0000
0000
0000
0000
0000
0f80
11c0
20e0
6060
6060
6060
6060
7040
3880
1f00
0000
0000
0000
0000
0000
ENDCHAR
STARTCHAR p
ENCODING 112
SWIDTH 1 0
DWIDTH 12 0
BBX 12 20 0 0
BITMAP
0000
0000
0000
0000
0000
ef80
71c0
60e0
6060
6060
6060
6060
6040
7080
7f00
6000
6000
6000
6000
f000
ENDCHAR
STARTCHAR q
ENCODING 113
SWIDTH 1 0
DWIDTH 12 0
BBX 12 20 0 0
BITMAP
0000
0000
0000
0000
0000
0f20
11e0
20e0
6060
6060
6060
6060
7060
38e0
1fe0
0060
0060
0060
0060
00f0
ENDCHAR
STARTCHAR r
ENCODING 114
SWIDTH 1 0
DWIDTH 12 0
BBX 12 20 0 0
BITMAP
0000
0000
0000
0000
0000
7380
34c0
38c0
3000
3000
3000
3000
3000
3000
7800
0000
0000
0000
0000
0000
ENDCHAR
STARTCHAR s
ENCODING 115
SWIDTH 1 0
DWIDTH 12 0
BBX 12 20 0 0
BITMAP
0000
0000
0000
0000
0000
1fc0
30c0
3040
3800
1e00
0780
01c0
20c0
30c0
3f80
0000
0000
0000
0000
0000
ENDCHAR
STARTCHAR t
ENCODING 116
SWIDTH 1 0
DWIDTH 12 0
BBX 12 20 0 0
BITMAP
0000
0000
0400
0400
0c00
7fc0
0c00
0c00
0c00
0c00
0c00
0c00
0c20
0e40
0780
0000
0000
0000
0000
0000
ENDCHAR
STARTCHAR u
ENCODING 117
SWIDTH 1 0
DWIDTH 12 0
BBX 12 20 0 0
BITMAP
0000
0000
0000
0000
0000
79e0
30c0
30c0
30c0
30c0
30c0
30c0
30c0
39c0
1e60
0000
0000
0000
0000
0000
ENDCHAR
STARTCHAR v
ENCODING 118
SWIDTH 1 0
DWIDTH 12 0
BBX 12 20 0 0
BITMAP
0000
0000
0000
0000
0000
f070
6020
3040
3040
1880
1880
0d00
0d00
0600
0600
0000
0000
0000
0000
0000
ENDCHAR
STARTCHAR w
ENCODING 119
SWIDTH 1 0
DWIDTH 12 0
BBX 12 20 0 0
BITMAP
0000
0000
0000
0000
0000
ff70
6620
6620
6620
3740
3b40
3b40
1980
1980
1980
0000
0000
0000
0000
0000
ENDCHAR
STARTCHAR x
ENCODING 120
SWIDTH 1 0
DWIDTH 12 0
BBX 12 20 0 0
BITMAP
0000
0000
0000
0000
0000
f8f0
7040
3880
1d00
0e00
0700
0b80
11c0
20e0
f1f0
0000
0000
0000
0000
0000
ENDCHAR
STARTCHAR y
ENCODING 121
SWIDTH 1 0
DWIDTH 12 0
BBX 12 20 0 0
BITMAP
0000
0000
0000
0000
0000
f0f0
6020
3040
3040
1880
1880
0d00
0d00
0600
0600
0400
0c00
0800
7800
7000
ENDCHAR
STARTCHAR z
ENCODING 122
SWIDTH 1 0
DWIDTH 12 0
BBX 12 20 0 0
BITMAP
0000
0000
0000
0000
0000
7fe0
60e0
41c0
0380
0700
0e00
1c00
3820
7060
7fe0
0000
0000
0000
0000
0000
ENDCHAR
STARTCHAR {
ENCODING 123
SWIDTH 1 0
DWIDTH 12 0
BBX 12 20 0 0
BITMAP
01c0
0300
0300
0180
0180
0180
0300
0700
0300
0180
0180
0180
0300
0300
01c0
0000
0000
0000
0000
0000
ENDCHAR
STARTCHAR |
ENCODING 124
SWIDTH 1 0
DWIDTH 12 0
BBX 12 20 0 0
BITMAP
0600
0600
0600
0600
0600
0600
0600
0600
0600
0600
0600
0600
0600
0600
0600
0600
0600
0600
0600
0600
ENDCHAR
STARTCHAR }
ENCODING 125
SWIDTH 1 0
DWIDTH 12 0
BBX 12 20 0 0
BITMAP
3800
0c00
0c00
1800
1800
1800
0c00
0e00
0c00
1800
1800
1800
0c00
0c00
3800
0000
0000
0000
0000
0000
ENDCHAR
STARTCHAR ~
ENCODING 126
SWIDTH 1 0
DWIDTH 12 0
BBX 12 20 0 0
BITMAP
0000
0000
0000
0000
0000
0000
0000
0000
1c20
3e60
36c0
67c0
4380
0000
0000
0000
0000
0000
0000
0000
ENDCHAR
STARTCHAR C177
ENCODING 127
SWIDTH 1 0
DWIDTH 12 0
BBX 12 20 0 0
BITMAP
0000
0000
0000
0000
0000
0000
0000
0000
0000
0000
0000
0000
0000
0000
0000
0000
0000
0000
0000
0000
ENDCHAR
STARTCHAR C200
ENCODING 128
SWIDTH 1 0
DWIDTH 12 0
BBX 12 20 0 0
BITMAP
0000
0000
0000
0000
0000
0000
0000
0000
0000
0000
0000
0000
0000
0000
0000
0000
0000
0000
0000
0000
ENDCHAR
STARTCHAR C201
ENCODING 129
SWIDTH 1 0
DWIDTH 12 0
BBX 12 20 0 0
BITMAP
0000
0000
0000
0000
0000
0000
0000
0000
0000
0000
0000
0000
0000
0000
0000
0000
0000
0000
0000
0000
ENDCHAR
STARTCHAR C202
ENCODING 130
SWIDTH 1 0
DWIDTH 12 0
BBX 12 20 0 0
BITMAP
0000
0000
0000
0000
0000
0000
0000
0000
0000
0000
0000
0000
0000
0000
0000
0000
0000
0000
0000
0000
ENDCHAR
STARTCHAR C203
ENCODING 131
SWIDTH 1 0
DWIDTH 12 0
BBX 12 20 0 0
BITMAP
0000
0000
0000
0000
0000
0000
0000
0000
0000
0000
0000
0000
0000
0000
0000
0000
0000
0000
0000
0000
ENDCHAR
STARTCHAR C204
ENCODING 132
SWIDTH 1 0
DWIDTH 12 0
BBX 12 20 0 0
BITMAP
0000
0000
0000
0000
0000
0000
0000
0000
0000
0000
0000
0000
0000
0000
0000
0000
0000
0000
0000
0000
ENDCHAR
STARTCHAR C205
ENCODING 133
SWIDTH 1 0
DWIDTH 12 0
BBX 12 20 0 0
BITMAP
0000
0000
0000
0000
0000
0000
0000
0000
0000
0000
0000
0000
0000
0000
0000
0000
0000
0000
0000
0000
ENDCHAR
STARTCHAR C206
ENCODING 134
SWIDTH 1 0
DWIDTH 12 0
BBX 12 20 0 0
BITMAP
0000
0000
0000
0000
0000
0000
0000
0000
0000
0000
0000
0000
0000
0000
0000
0000
0000
0000
0000
0000
ENDCHAR
STARTCHAR C207
ENCODING 135
SWIDTH 1 0
DWIDTH 12 0
BBX 12 20 0 0
BITMAP
0000
0000
0000
0000
0000
0000
0000
0000
0000
0000
0000
0000
0000
0000
0000
0000
0000
0000
0000
0000
ENDCHAR
STARTCHAR C210
ENCODING 136
SWIDTH 1 0
DWIDTH 12 0
BBX 12 20 0 0
BITMAP
0000
0000
0000
0000
0000
0000
0000
0000
0000
0000
0000
0000
0000
0000
0000
0000
0000
0000
0000
0000
ENDCHAR
STARTCHAR C211
ENCODING 137
SWIDTH 1 0
DWIDTH 12 0
BBX 12 20 0 0
BITMAP
0000
0000
0000
0000
0000
0000
0000
0000
0000
0000
0000
0000
0000
0000
0000
0000
0000
0000
0000
0000
ENDCHAR
STARTCHAR C212
ENCODING 138
SWIDTH 1 0
DWIDTH 12 0
BBX 12 20 0 0
BITMAP
0000
0000
0000
0000
0000
0000
0000
0000
0000
0000
0000
0000
0000
0000
0000
0000
0000
0000
0000
0000
ENDCHAR
STARTCHAR C213
ENCODING 139
SWIDTH 1 0
DWIDTH 12 0
BBX 12 20 0 0
BITMAP
0000
0000
0000
0000
0000
0000
0000
0000
0000
0000
0000
0000
0000
0000
0000
0000
0000
0000
0000
0000
ENDCHAR
STARTCHAR C214
ENCODING 140
SWIDTH 1 0
DWIDTH 12 0
BBX 12 20 0 0
BITMAP
0000
0000
0000
0000
0000
0000
0000
0000
0000
0000
0000
0000
0000
0000
0000
0000
0000
0000
0000
0000
ENDCHAR
STARTCHAR C215
ENCODING 141
SWIDTH 1 0
DWIDTH 12 0
BBX 12 20 0 0
BITMAP
0000
0000
0000
0000
0000
0000
0000
0000
0000
0000
0000
0000
0000
0000
0000
0000
0000
0000
0000
0000
ENDCHAR
STARTCHAR C216
ENCODING 142
SWIDTH 1 0
DWIDTH 12 0
BBX 12 20 0 0
BITMAP
0000
0000
0000
0000
0000
0000
0000
0000
0000
0000
0000
0000
0000
0000
0000
0000
0000
0000
0000
0000
ENDCHAR
STARTCHAR C217
ENCODING 143
SWIDTH 1 0
DWIDTH 12 0
BBX 12 20 0 0
BITMAP
0000
0000
0000
0000
0000
0000
0000
0000
0000
0000
0000
0000
0000
0000
0000
0000
0000
0000
0000
0000
ENDCHAR
STARTCHAR C220
ENCODING 144
SWIDTH 1 0
DWIDTH 12 0
BBX 12 20 0 0
BITMAP
0000
0000
0000
0000
0000
0000
0000
0000
0000
0000
0000
0000
0000
0000
0000
0000
0000
0000
0000
0000
ENDCHAR
STARTCHAR C221
ENCODING 145
SWIDTH 1 0
DWIDTH 12 0
BBX 12 20 0 0
BITMAP
0000
0000
0000
0000
0000
0000
0000
0000
0000
0000
0000
0000
0000
0000
0000
0000
0000
0000
0000
0000
ENDCHAR
STARTCHAR C222
ENCODING 146
SWIDTH 1 0
DWIDTH 12 0
BBX 12 20 0 0
BITMAP
0000
0000
0000
0000
0000
0000
0000
0000
0000
0000
0000
0000
0000
0000
0000
0000
0000
0000
0000
0000
ENDCHAR
STARTCHAR C223
ENCODING 147
SWIDTH 1 0
DWIDTH 12 0
BBX 12 20 0 0
BITMAP
0000
0000
0000
0000
0000
0000
0000
0000
0000
0000
0000
0000
0000
0000
0000
0000
0000
0000
0000
0000
ENDCHAR
STARTCHAR C224
ENCODING 148
SWIDTH 1 0
DWIDTH 12 0
BBX 12 20 0 0
BITMAP
0000
0000
0000
0000
0000
0000
0000
0000
0000
0000
0000
0000
0000
0000
0000
0000
0000
0000
0000
0000
ENDCHAR
STARTCHAR C225
ENCODING 149
SWIDTH 1 0
DWIDTH 12 0
BBX 12 20 0 0
BITMAP
0000
0000
0000
0000
0000
0000
0000
0000
0000
0000
0000
0000
0000
0000
0000
0000
0000
0000
0000
0000
ENDCHAR
STARTCHAR C226
ENCODING 150
SWIDTH 1 0
DWIDTH 12 0
BBX 12 20 0 0
BITMAP
0000
0000
0000
0000
0000
0000
0000
0000
0000
0000
0000
0000
0000
0000
0000
0000
0000
0000
0000
0000
ENDCHAR
STARTCHAR C227
ENCODING 151
SWIDTH 1 0
DWIDTH 12 0
BBX 12 20 0 0
BITMAP
0000
0000
0000
0000
0000
0000
0000
0000
0000
0000
0000
0000
0000
0000
0000
0000
0000
0000
0000
0000
ENDCHAR
STARTCHAR C230
ENCODING 152
SWIDTH 1 0
DWIDTH 12 0
BBX 12 20 0 0
BITMAP
0000
0000
0000
0000
0000
0000
0000
0000
0000
0000
0000
0000
0000
0000
0000
0000
0000
0000
0000
0000
ENDCHAR
STARTCHAR C231
ENCODING 153
SWIDTH 1 0
DWIDTH 12 0
BBX 12 20 0 0
BITMAP
0000
0000
0000
0000
0000
0000
0000
0000
0000
0000
0000
0000
0000
0000
0000
0000
0000
0000
0000
0000
ENDCHAR
STARTCHAR C232
ENCODING 154
SWIDTH 1 0
DWIDTH 12 0
BBX 12 20 0 0
BITMAP
0000
0000
0000
0000
0000
0000
0000
0000
0000
0000
0000
0000
0000
0000
0000
0000
0000
0000
0000
0000
ENDCHAR
STARTCHAR C233
ENCODING 155
SWIDTH 1 0
DWIDTH 12 0
BBX 12 20 0 0
BITMAP
0000
0000
0000
0000
0000
0000
0000
0000
0000
0000
0000
0000
0000
0000
0000
0000
0000
0000
0000
0000
ENDCHAR
STARTCHAR C234
ENCODING 156
SWIDTH 1 0
DWIDTH 12 0
BBX 12 20 0 0
BITMAP
0000
0000
0000
0000
0000
0000
0000
0000
0000
0000
0000
0000
0000
0000
0000
0000
0000
0000
0000
0000
ENDCHAR
STARTCHAR C235
ENCODING 157
SWIDTH 1 0
DWIDTH 12 0
BBX 12 20 0 0
BITMAP
0000
0000
0000
0000
0000
0000
0000
0000
0000
0000
0000
0000
0000
0000
0000
0000
0000
0000
0000
0000
ENDCHAR
STARTCHAR C236
ENCODING 158
SWIDTH 1 0
DWIDTH 12 0
BBX 12 20 0 0
BITMAP
0000
0000
0000
0000
0000
0000
0000
0000
0000
0000
0000
0000
0000
0000
0000
0000
0000
0000
0000
0000
ENDCHAR
STARTCHAR C237
ENCODING 159
SWIDTH 1 0
DWIDTH 12 0
BBX 12 20 0 0
BITMAP
0000
0000
0000
0000
0000
0000
0000
0000
0000
0000
0000
0000
0000
0000
0000
0000
0000
0000
0000
0000
ENDCHAR
STARTCHAR C240
ENCODING 160
SWIDTH 1 0
DWIDTH 12 0
BBX 12 20 0 0
BITMAP
0000
0000
0000
0000
0000
0000
0000
0000
0000
0000
0000
0000
0000
0000
0000
0000
0000
0000
0000
0000
ENDCHAR
STARTCHAR C241
ENCODING 161
SWIDTH 1 0
DWIDTH 12 0
BBX 12 20 0 0
BITMAP
0000
0000
0000
0000
0000
0000
0000
0000
0000
0000
0000
0000
0000
0000
0000
0000
0000
0000
0000
0000
ENDCHAR
STARTCHAR C242
ENCODING 162
SWIDTH 1 0
DWIDTH 12 0
BBX 12 20 0 0
BITMAP
0000
0000
0000
0000
0000
0000
0000
0000
0000
0000
0000
0000
0000
0000
0000
0000
0000
0000
0000
0000
ENDCHAR
STARTCHAR C243
ENCODING 163
SWIDTH 1 0
DWIDTH 12 0
BBX 12 20 0 0
BITMAP
0000
0000
0000
0000
0000
0000
0000
0000
0000
0000
0000
0000
0000
0000
0000
0000
0000
0000
0000
0000
ENDCHAR
STARTCHAR C244
ENCODING 164
SWIDTH 1 0
DWIDTH 12 0
BBX 12 20 0 0
BITMAP
0000
0000
0000
0000
0000
0000
0000
0000
0000
0000
0000
0000
0000
0000
0000
0000
0000
0000
0000
0000
ENDCHAR
STARTCHAR C245
ENCODING 165
SWIDTH 1 0
DWIDTH 12 0
BBX 12 20 0 0
BITMAP
0000
0000
0000
0000
0000
0000
0000
0000
0000
0000
0000
0000
0000
0000
0000
0000
0000
0000
0000
0000
ENDCHAR
STARTCHAR C246
ENCODING 166
SWIDTH 1 0
DWIDTH 12 0
BBX 12 20 0 0
BITMAP
0000
0000
0000
0000
0000
0000
0000
0000
0000
0000
0000
0000
0000
0000
0000
0000
0000
0000
0000
0000
ENDCHAR
STARTCHAR C247
ENCODING 167
SWIDTH 1 0
DWIDTH 12 0
BBX 12 20 0 0
BITMAP
0000
0000
0000
0000
0000
0000
0000
0000
0000
0000
0000
0000
0000
0000
0000
0000
0000
0000
0000
0000
ENDCHAR
STARTCHAR C250
ENCODING 168
SWIDTH 1 0
DWIDTH 12 0
BBX 12 20 0 0
BITMAP
0000
0000
0000
0000
0000
0000
0000
0000
0000
0000
0000
0000
0000
0000
0000
0000
0000
0000
0000
0000
ENDCHAR
STARTCHAR C251
ENCODING 169
SWIDTH 1 0
DWIDTH 12 0
BBX 12 20 0 0
BITMAP
0000
0000
0000
0000
0000
0000
0000
0000
0000
0000
0000
0000
0000
0000
0000
0000
0000
0000
0000
0000
ENDCHAR
STARTCHAR C252
ENCODING 170
SWIDTH 1 0
DWIDTH 12 0
BBX 12 20 0 0
BITMAP
0000
0000
0000
0000
0000
0000
0000
0000
0000
0000
0000
0000
0000
0000
0000
0000
0000
0000
0000
0000
ENDCHAR
STARTCHAR C253
ENCODING 171
SWIDTH 1 0
DWIDTH 12 0
BBX 12 20 0 0
BITMAP
0000
0000
0000
0000
0000
0000
0000
0000
0000
0000
0000
0000
0000
0000
0000
0000
0000
0000
0000
0000
ENDCHAR
STARTCHAR C254
ENCODING 172
SWIDTH 1 0
DWIDTH 12 0
BBX 12 20 0 0
BITMAP
0000
0000
0000
0000
0000
0000
0000
0000
0000
0000
0000
0000
0000
0000
0000
0000
0000
0000
0000
0000
ENDCHAR
STARTCHAR C255
ENCODING 173
SWIDTH 1 0
DWIDTH 12 0
BBX 12 20 0 0
BITMAP
0000
0000
0000
0000
0000
0000
0000
0000
0000
0000
0000
0000
0000
0000
0000
0000
0000
0000
0000
0000
ENDCHAR
STARTCHAR C256
ENCODING 174
SWIDTH 1 0
DWIDTH 12 0
BBX 12 20 0 0
BITMAP
0000
0000
0000
0000
0000
0000
0000
0000
0000
0000
0000
0000
0000
0000
0000
0000
0000
0000
0000
0000
ENDCHAR
STARTCHAR C257
ENCODING 175
SWIDTH 1 0
DWIDTH 12 0
BBX 12 20 0 0
BITMAP
0000
0000
0000
0000
0000
0000
0000
0000
0000
0000
0000
0000
0000
0000
0000
0000
0000
0000
0000
0000
ENDCHAR
STARTCHAR C260
ENCODING 176
SWIDTH 1 0
DWIDTH 12 0
BBX 12 20 0 0
BITMAP
0000
0000
0000
0000
0000
0000
0000
0000
0000
0000
0000
0000
0000
0000
0000
0000
0000
0000
0000
0000
ENDCHAR
STARTCHAR C261
ENCODING 177
SWIDTH 1 0
DWIDTH 12 0
BBX 12 20 0 0
BITMAP
0000
0000
0000
0000
0000
0000
0000
0000
0000
0000
0000
0000
0000
0000
0000
0000
0000
0000
0000
0000
ENDCHAR
STARTCHAR C262
ENCODING 178
SWIDTH 1 0
DWIDTH 12 0
BBX 12 20 0 0
BITMAP
0000
0000
0000
0000
0000
0000
0000
0000
0000
0000
0000
0000
0000
0000
0000
0000
0000
0000
0000
0000
ENDCHAR
STARTCHAR C263
ENCODING 179
SWIDTH 1 0
DWIDTH 12 0
BBX 12 20 0 0
BITMAP
0000
0000
0000
0000
0000
0000
0000
0000
0000
0000
0000
0000
0000
0000
0000
0000
0000
0000
0000
0000
ENDCHAR
STARTCHAR C264
ENCODING 180
SWIDTH 1 0
DWIDTH 12 0
BBX 12 20 0 0
BITMAP
0000
0000
0000
0000
0000
0000
0000
0000
0000
0000
0000
0000
0000
0000
0000
0000
0000
0000
0000
0000
ENDCHAR
STARTCHAR C265
ENCODING 181
SWIDTH 1 0
DWIDTH 12 0
BBX 12 20 0 0
BITMAP
0000
0000
0000
0000
0000
0000
0000
0000
0000
0000
0000
0000
0000
0000
0000
0000
0000
0000
0000
0000
ENDCHAR
STARTCHAR C266
ENCODING 182
SWIDTH 1 0
DWIDTH 12 0
BBX 12 20 0 0
BITMAP
0000
0000
0000
0000
0000
0000
0000
0000
0000
0000
0000
0000
0000
0000
0000
0000
0000
0000
0000
0000
ENDCHAR
STARTCHAR C267
ENCODING 183
SWIDTH 1 0
DWIDTH 12 0
BBX 12 20 0 0
BITMAP
0000
0000
0000
0000
0000
0000
0000
0000
0000
0000
0000
0000
0000
0000
0000
0000
0000
0000
0000
0000
ENDCHAR
STARTCHAR C270
ENCODING 184
SWIDTH 1 0
DWIDTH 12 0
BBX 12 20 0 0
BITMAP
0000
0000
0000
0000
0000
0000
0000
0000
0000
0000
0000
0000
0000
0000
0000
0000
0000
0000
0000
0000
ENDCHAR
STARTCHAR C271
ENCODING 185
SWIDTH 1 0
DWIDTH 12 0
BBX 12 20 0 0
BITMAP
0000
0000
0000
0000
0000
0000
0000
0000
0000
0000
0000
0000
0000
0000
0000
0000
0000
0000
0000
0000
ENDCHAR
STARTCHAR C272
ENCODING 186
SWIDTH 1 0
DWIDTH 12 0
BBX 12 20 0 0
BITMAP
0000
0000
0000
0000
0000
0000
0000
0000
0000
0000
0000
0000
0000
0000
0000
0000
0000
0000
0000
0000
ENDCHAR
STARTCHAR C273
ENCODING 187
SWIDTH 1 0
DWIDTH 12 0
BBX 12 20 0 0
BITMAP
0000
0000
0000
0000
0000
0000
0000
0000
0000
0000
0000
0000
0000
0000
0000
0000
0000
0000
0000
0000
ENDCHAR
STARTCHAR C274
ENCODING 188
SWIDTH 1 0
DWIDTH 12 0
BBX 12 20 0 0
BITMAP
0000
0000
0000
0000
0000
0000
0000
0000
0000
0000
0000
0000
0000
0000
0000
0000
0000
0000
0000
0000
ENDCHAR
STARTCHAR C275
ENCODING 189
SWIDTH 1 0
DWIDTH 12 0
BBX 12 20 0 0
BITMAP
0000
0000
0000
0000
0000
0000
0000
0000
0000
0000
0000
0000
0000
0000
0000
0000
0000
0000
0000
0000
ENDCHAR
STARTCHAR C276
ENCODING 190
SWIDTH 1 0
DWIDTH 12 0
BBX 12 20 0 0
BITMAP
0000
0000
0000
0000
0000
0000
0000
0000
0000
0000
0000
0000
0000
0000
0000
0000
0000
0000
0000
0000
ENDCHAR
STARTCHAR C277
ENCODING 191
SWIDTH 1 0
DWIDTH 12 0
BBX 12 20 0 0
BITMAP
0000
0000
0000
0000
0000
0000
0000
0000
0000
0000
0000
0000
0000
0000
0000
0000
0000
0000
0000
0000
ENDCHAR
STARTCHAR C300
ENCODING 192
SWIDTH 1 0
DWIDTH 12 0
BBX 12 20 0 0
BITMAP
0000
0000
0000
0000
0000
0000
0000
0000
0000
0000
0000
0000
0000
0000
0000
0000
0000
0000
0000
0000
ENDCHAR
STARTCHAR C301
ENCODING 193
SWIDTH 1 0
DWIDTH 12 0
BBX 12 20 0 0
BITMAP
0000
0000
0000
0000
0000
0000
0000
0000
0000
0000
0000
0000
0000
0000
0000
0000
0000
0000
0000
0000
ENDCHAR
STARTCHAR C302
ENCODING 194
SWIDTH 1 0
DWIDTH 12 0
BBX 12 20 0 0
BITMAP
0000
0000
0000
0000
0000
0000
0000
0000
0000
0000
0000
0000
0000
0000
0000
0000
0000
0000
0000
0000
ENDCHAR
STARTCHAR C303
ENCODING 195
SWIDTH 1 0
DWIDTH 12 0
BBX 12 20 0 0
BITMAP
0000
0000
0000
0000
0000
0000
0000
0000
0000
0000
0000
0000
0000
0000
0000
0000
0000
0000
0000
0000
ENDCHAR
STARTCHAR C304
ENCODING 196
SWIDTH 1 0
DWIDTH 12 0
BBX 12 20 0 0
BITMAP
0000
0000
0000
0000
0000
0000
0000
0000
0000
0000
0000
0000
0000
0000
0000
0000
0000
0000
0000
0000
ENDCHAR
STARTCHAR C305
ENCODING 197
SWIDTH 1 0
DWIDTH 12 0
BBX 12 20 0 0
BITMAP
0000
0000
0000
0000
0000
0000
0000
0000
0000
0000
0000
0000
0000
0000
0000
0000
0000
0000
0000
0000
ENDCHAR
STARTCHAR C306
ENCODING 198
SWIDTH 1 0
DWIDTH 12 0
BBX 12 20 0 0
BITMAP
0000
0000
0000
0000
0000
0000
0000
0000
0000
0000
0000
0000
0000
0000
0000
0000
0000
0000
0000
0000
ENDCHAR
STARTCHAR C307
ENCODING 199
SWIDTH 1 0
DWIDTH 12 0
BBX 12 20 0 0
BITMAP
0000
0000
0000
0000
0000
0000
0000
0000
0000
0000
0000
0000
0000
0000
0000
0000
0000
0000
0000
0000
ENDCHAR
STARTCHAR C310
ENCODING 200
SWIDTH 1 0
DWIDTH 12 0
BBX 12 20 0 0
BITMAP
0000
0000
0000
0000
0000
0000
0000
0000
0000
0000
0000
0000
0000
0000
0000
0000
0000
0000
0000
0000
ENDCHAR
STARTCHAR C311
ENCODING 201
SWIDTH 1 0
DWIDTH 12 0
BBX 12 20 0 0
BITMAP
0000
0000
0000
0000
0000
0000
0000
0000
0000
0000
0000
0000
0000
0000
0000
0000
0000
0000
0000
0000
ENDCHAR
STARTCHAR C312
ENCODING 202
SWIDTH 1 0
DWIDTH 12 0
BBX 12 20 0 0
BITMAP
0000
0000
0000
0000
0000
0000
0000
0000
0000
0000
0000
0000
0000
0000
0000
0000
0000
0000
0000
0000
ENDCHAR
STARTCHAR C313
ENCODING 203
SWIDTH 1 0
DWIDTH 12 0
BBX 12 20 0 0
BITMAP
0000
0000
0000
0000
0000
0000
0000
0000
0000
0000
0000
0000
0000
0000
0000
0000
0000
0000
0000
0000
ENDCHAR
STARTCHAR C314
ENCODING 204
SWIDTH 1 0
DWIDTH 12 0
BBX 12 20 0 0
BITMAP
0000
0000
0000
0000
0000
0000
0000
0000
0000
0000
0000
0000
0000
0000
0000
0000
0000
0000
0000
0000
ENDCHAR
STARTCHAR C315
ENCODING 205
SWIDTH 1 0
DWIDTH 12 0
BBX 12 20 0 0
BITMAP
0000
0000
0000
0000
0000
0000
0000
0000
0000
0000
0000
0000
0000
0000
0000
0000
0000
0000
0000
0000
ENDCHAR
STARTCHAR C316
ENCODING 206
SWIDTH 1 0
DWIDTH 12 0
BBX 12 20 0 0
BITMAP
0000
0000
0000
0000
0000
0000
0000
0000
0000
0000
0000
0000
0000
0000
0000
0000
0000
0000
0000
0000
ENDCHAR
STARTCHAR C317
ENCODING 207
SWIDTH 1 0
DWIDTH 12 0
BBX 12 20 0 0
BITMAP
0000
0000
0000
0000
0000
0000
0000
0000
0000
0000
0000
0000
0000
0000
0000
0000
0000
0000
0000
0000
ENDCHAR
STARTCHAR C320
ENCODING 208
SWIDTH 1 0
DWIDTH 12 0
BBX 12 20 0 0
BITMAP
0000
0000
0000
0000
0000
0000
0000
0000
0000
0000
0000
0000
0000
0000
0000
0000
0000
0000
0000
0000
ENDCHAR
STARTCHAR C321
ENCODING 209
SWIDTH 1 0
DWIDTH 12 0
BBX 12 20 0 0
BITMAP
0000
0000
0000
0000
0000
0000
0000
0000
0000
0000
0000
0000
0000
0000
0000
0000
0000
0000
0000
0000
ENDCHAR
STARTCHAR C322
ENCODING 210
SWIDTH 1 0
DWIDTH 12 0
BBX 12 20 0 0
BITMAP
0000
0000
0000
0000
0000
0000
0000
0000
0000
0000
0000
0000
0000
0000
0000
0000
0000
0000
0000
0000
ENDCHAR
STARTCHAR C323
ENCODING 211
SWIDTH 1 0
DWIDTH 12 0
BBX 12 20 0 0
BITMAP
0000
0000
0000
0000
0000
0000
0000
0000
0000
0000
0000
0000
0000
0000
0000
0000
0000
0000
0000
0000
ENDCHAR
STARTCHAR C324
ENCODING 212
SWIDTH 1 0
DWIDTH 12 0
BBX 12 20 0 0
BITMAP
0000
0000
0000
0000
0000
0000
0000
0000
0000
0000
0000
0000
0000
0000
0000
0000
0000
0000
0000
0000
ENDCHAR
STARTCHAR C325
ENCODING 213
SWIDTH 1 0
DWIDTH 12 0
BBX 12 20 0 0
BITMAP
0000
0000
0000
0000
0000
0000
0000
0000
0000
0000
0000
0000
0000
0000
0000
0000
0000
0000
0000
0000
ENDCHAR
STARTCHAR C326
ENCODING 214
SWIDTH 1 0
DWIDTH 12 0
BBX 12 20 0 0
BITMAP
0000
0000
0000
0000
0000
0000
0000
0000
0000
0000
0000
0000
0000
0000
0000
0000
0000
0000
0000
0000
ENDCHAR
STARTCHAR C327
ENCODING 215
SWIDTH 1 0
DWIDTH 12 0
BBX 12 20 0 0
BITMAP
0000
0000
0000
0000
0000
0000
0000
0000
0000
0000
0000
0000
0000
0000
0000
0000
0000
0000
0000
0000
ENDCHAR
STARTCHAR C330
ENCODING 216
SWIDTH 1 0
DWIDTH 12 0
BBX 12 20 0 0
BITMAP
0000
0000
0000
0000
0000
0000
0000
0000
0000
0000
0000
0000
0000
0000
0000
0000
0000
0000
0000
0000
ENDCHAR
STARTCHAR C331
ENCODING 217
SWIDTH 1 0
DWIDTH 12 0
BBX 12 20 0 0
BITMAP
0000
0000
0000
0000
0000
0000
0000
0000
0000
0000
0000
0000
0000
0000
0000
0000
0000
0000
0000
0000
ENDCHAR
STARTCHAR C332
ENCODING 218
SWIDTH 1 0
DWIDTH 12 0
BBX 12 20 0 0
BITMAP
0000
0000
0000
0000
0000
0000
0000
0000
0000
0000
0000
0000
0000
0000
0000
0000
0000
0000
0000
0000
ENDCHAR
STARTCHAR C333
ENCODING 219
SWIDTH 1 0
DWIDTH 12 0
BBX 12 20 0 0
BITMAP
0000
0000
0000
0000
0000
0000
0000
0000
0000
0000
0000
0000
0000
0000
0000
0000
0000
0000
0000
0000
ENDCHAR
STARTCHAR C334
ENCODING 220
SWIDTH 1 0
DWIDTH 12 0
BBX 12 20 0 0
BITMAP
0000
0000
0000
0000
0000
0000
0000
0000
0000
0000
0000
0000
0000
0000
0000
0000
0000
0000
0000
0000
ENDCHAR
STARTCHAR C335
ENCODING 221
SWIDTH 1 0
DWIDTH 12 0
BBX 12 20 0 0
BITMAP
0000
0000
0000
0000
0000
0000
0000
0000
0000
0000
0000
0000
0000
0000
0000
0000
0000
0000
0000
0000
ENDCHAR
STARTCHAR C336
ENCODING 222
SWIDTH 1 0
DWIDTH 12 0
BBX 12 20 0 0
BITMAP
0000
0000
0000
0000
0000
0000
0000
0000
0000
0000
0000
0000
0000
0000
0000
0000
0000
0000
0000
0000
ENDCHAR
STARTCHAR C337
ENCODING 223
SWIDTH 1 0
DWIDTH 12 0
BBX 12 20 0 0
BITMAP
0000
0000
0000
0000
0000
0000
0000
0000
0000
0000
0000
0000
0000
0000
0000
0000
0000
0000
0000
0000
ENDCHAR
STARTCHAR C340
ENCODING 224
SWIDTH 1 0
DWIDTH 12 0
BBX 12 20 0 0
BITMAP
0000
0000
0000
0000
0000
0000
0000
0000
0000
0000
0000
0000
0000
0000
0000
0000
0000
0000
0000
0000
ENDCHAR
STARTCHAR C341
ENCODING 225
SWIDTH 1 0
DWIDTH 12 0
BBX 12 20 0 0
BITMAP
0000
0000
0000
0000
0000
0000
0000
0000
0000
0000
0000
0000
0000
0000
0000
0000
0000
0000
0000
0000
ENDCHAR
STARTCHAR C342
ENCODING 226
SWIDTH 1 0
DWIDTH 12 0
BBX 12 20 0 0
BITMAP
0000
0000
0000
0000
0000
0000
0000
0000
0000
0000
0000
0000
0000
0000
0000
0000
0000
0000
0000
0000
ENDCHAR
STARTCHAR C343
ENCODING 227
SWIDTH 1 0
DWIDTH 12 0
BBX 12 20 0 0
BITMAP
0000
0000
0000
0000
0000
0000
0000
0000
0000
0000
0000
0000
0000
0000
0000
0000
0000
0000
0000
0000
ENDCHAR
STARTCHAR C344
ENCODING 228
SWIDTH 1 0
DWIDTH 12 0
BBX 12 20 0 0
BITMAP
0000
0000
0000
0000
0000
0000
0000
0000
0000
0000
0000
0000
0000
0000
0000
0000
0000
0000
0000
0000
ENDCHAR
STARTCHAR C345
ENCODING 229
SWIDTH 1 0
DWIDTH 12 0
BBX 12 20 0 0
BITMAP
0000
0000
0000
0000
0000
0000
0000
0000
0000
0000
0000
0000
0000
0000
0000
0000
0000
0000
0000
0000
ENDCHAR
STARTCHAR C346
ENCODING 230
SWIDTH 1 0
DWIDTH 12 0
BBX 12 20 0 0
BITMAP
0000
0000
0000
0000
0000
0000
0000
0000
0000
0000
0000
0000
0000
0000
0000
0000
0000
0000
0000
0000
ENDCHAR
STARTCHAR C347
ENCODING 231
SWIDTH 1 0
DWIDTH 12 0
BBX 12 20 0 0
BITMAP
0000
0000
0000
0000
0000
0000
0000
0000
0000
0000
0000
0000
0000
0000
0000
0000
0000
0000
0000
0000
ENDCHAR
STARTCHAR C350
ENCODING 232
SWIDTH 1 0
DWIDTH 12 0
BBX 12 20 0 0
BITMAP
0000
0000
0000
0000
0000
0000
0000
0000
0000
0000
0000
0000
0000
0000
0000
0000
0000
0000
0000
0000
ENDCHAR
STARTCHAR C351
ENCODING 233
SWIDTH 1 0
DWIDTH 12 0
BBX 12 20 0 0
BITMAP
0000
0000
0000
0000
0000
0000
0000
0000
0000
0000
0000
0000
0000
0000
0000
0000
0000
0000
0000
0000
ENDCHAR
STARTCHAR C352
ENCODING 234
SWIDTH 1 0
DWIDTH 12 0
BBX 12 20 0 0
BITMAP
0000
0000
0000
0000
0000
0000
0000
0000
0000
0000
0000
0000
0000
0000
0000
0000
0000
0000
0000
0000
ENDCHAR
STARTCHAR C353
ENCODING 235
SWIDTH 1 0
DWIDTH 12 0
BBX 12 20 0 0
BITMAP
0000
0000
0000
0000
0000
0000
0000
0000
0000
0000
0000
0000
0000
0000
0000
0000
0000
0000
0000
0000
ENDCHAR
STARTCHAR C354
ENCODING 236
SWIDTH 1 0
DWIDTH 12 0
BBX 12 20 0 0
BITMAP
0000
0000
0000
0000
0000
0000
0000
0000
0000
0000
0000
0000
0000
0000
0000
0000
0000
0000
0000
0000
ENDCHAR
STARTCHAR C355
ENCODING 237
SWIDTH 1 0
DWIDTH 12 0
BBX 12 20 0 0
BITMAP
0000
0000
0000
0000
0000
0000
0000
0000
0000
0000
0000
0000
0000
0000
0000
0000
0000
0000
0000
0000
ENDCHAR
STARTCHAR C356
ENCODING 238
SWIDTH 1 0
DWIDTH 12 0
BBX 12 20 0 0
BITMAP
0000
0000
0000
0000
0000
0000
0000
0000
0000
0000
0000
0000
0000
0000
0000
0000
0000
0000
0000
0000
ENDCHAR
STARTCHAR C357
ENCODING 239
SWIDTH 1 0
DWIDTH 12 0
BBX 12 20 0 0
BITMAP
0000
0000
0000
0000
0000
0000
0000
0000
0000
0000
0000
0000
0000
0000
0000
0000
0000
0000
0000
0000
ENDCHAR
STARTCHAR C360
ENCODING 240
SWIDTH 1 0
DWIDTH 12 0
BBX 12 20 0 0
BITMAP
0000
0000
0000
0000
0000
0000
0000
0000
0000
0000
0000
0000
0000
0000
0000
0000
0000
0000
0000
0000
ENDCHAR
STARTCHAR C361
ENCODING 241
SWIDTH 1 0
DWIDTH 12 0
BBX 12 20 0 0
BITMAP
0000
0000
0000
0000
0000
0000
0000
0000
0000
0000
0000
0000
0000
0000
0000
0000
0000
0000
0000
0000
ENDCHAR
STARTCHAR C362
ENCODING 242
SWIDTH 1 0
DWIDTH 12 0
BBX 12 20 0 0
BITMAP
0000
0000
0000
0000
0000
0000
0000
0000
0000
0000
0000
0000
0000
0000
0000
0000
0000
0000
0000
0000
ENDCHAR
STARTCHAR C363
ENCODING 243
SWIDTH 1 0
DWIDTH 12 0
BBX 12 20 0 0
BITMAP
0000
0000
0000
0000
0000
0000
0000
0000
0000
0000
0000
0000
0000
0000
0000
0000
0000
0000
0000
0000
ENDCHAR
STARTCHAR C364
ENCODING 244
SWIDTH 1 0
DWIDTH 12 0
BBX 12 20 0 0
BITMAP
0000
0000
0000
0000
0000
0000
0000
0000
0000
0000
0000
0000
0000
0000
0000
0000
0000
0000
0000
0000
ENDCHAR
STARTCHAR C365
ENCODING 245
SWIDTH 1 0
DWIDTH 12 0
BBX 12 20 0 0
BITMAP
0000
0000
0000
0000
0000
0000
0000
0000
0000
0000
0000
0000
0000
0000
0000
0000
0000
0000
0000
0000
ENDCHAR
STARTCHAR C366
ENCODING 246
SWIDTH 1 0
DWIDTH 12 0
BBX 12 20 0 0
BITMAP
0000
0000
0000
0000
0000
0000
0000
0000
0000
0000
0000
0000
0000
0000
0000
0000
0000
0000
0000
0000
ENDCHAR
STARTCHAR C367
ENCODING 247
SWIDTH 1 0
DWIDTH 12 0
BBX 12 20 0 0
BITMAP
0000
0000
0000
0000
0000
0000
0000
0000
0000
0000
0000
0000
0000
0000
0000
0000
0000
0000
0000
0000
ENDCHAR
STARTCHAR C370
ENCODING 248
SWIDTH 1 0
DWIDTH 12 0
BBX 12 20 0 0
BITMAP
0000
0000
0000
0000
0000
0000
0000
0000
0000
0000
0000
0000
0000
0000
0000
0000
0000
0000
0000
0000
ENDCHAR
STARTCHAR C371
ENCODING 249
SWIDTH 1 0
DWIDTH 12 0
BBX 12 20 0 0
BITMAP
0000
0000
0000
0000
0000
0000
0000
0000
0000
0000
0000
0000
0000
0000
0000
0000
0000
0000
0000
0000
ENDCHAR
STARTCHAR C372
ENCODING 250
SWIDTH 1 0
DWIDTH 12 0
BBX 12 20 0 0
BITMAP
0000
0000
0000
0000
0000
0000
0000
0000
0000
0000
0000
0000
0000
0000
0000
0000
0000
0000
0000
0000
ENDCHAR
STARTCHAR C373
ENCODING 251
SWIDTH 1 0
DWIDTH 12 0
BBX 12 20 0 0
BITMAP
0000
0000
0000
0000
0000
0000
0000
0000
0000
0000
0000
0000
0000
0000
0000
0000
0000
0000
0000
0000
ENDCHAR
STARTCHAR C374
ENCODING 252
SWIDTH 1 0
DWIDTH 12 0
BBX 12 20 0 0
BITMAP
0000
0000
0000
0000
0000
0000
0000
0000
0000
0000
0000
0000
0000
0000
0000
0000
0000
0000
0000
0000
ENDCHAR
STARTCHAR C375
ENCODING 253
SWIDTH 1 0
DWIDTH 12 0
BBX 12 20 0 0
BITMAP
0000
0000
0000
0000
0000
0000
0000
0000
0000
0000
0000
0000
0000
0000
0000
0000
0000
0000
0000
0000
ENDCHAR
STARTCHAR C376
ENCODING 254
SWIDTH 1 0
DWIDTH 12 0
BBX 12 20 0 0
BITMAP
0000
0000
0000
0000
0000
0000
0000
0000
0000
0000
0000
0000
0000
0000
0000
0000
0000
0000
0000
0000
ENDCHAR
STARTCHAR C377
ENCODING 255
SWIDTH 1 0
DWIDTH 12 0
BBX 12 20 0 0
BITMAP
0000
0000
0000
0000
0000
0000
0000
0000
0000
0000
0000
0000
0000
0000
0000
0000
0000
0000
0000
0000
ENDCHAR
ENDFONT
